<svg xmlns="http://www.w3.org/2000/svg" width="20.003" height="20" viewBox="0 0 20.003 20">
  <g id="Group_69449" data-name="Group 69449" transform="translate(-14808 -18651.295)">
    <g id="Group_69448" data-name="Group 69448" transform="translate(14763 18366)">
      <path id="account-service" d="M22.386,11.965h-.033c-.521,0-1.058-.016-1.579,0a.5.5,0,0,1-.163-.016A8.136,8.136,0,0,0,19.392,9a1.631,1.631,0,0,1,.179-.2c.358-.358.7-.716,1.074-1.058a10.047,10.047,0,0,0-2.311-2.311c-.374.374-.765.749-1.123,1.139a.894.894,0,0,1-.146.114,8.108,8.108,0,0,0-2.945-1.2c0-.033-.016-.065-.016-.114.016-.277,0-.57,0-.846h0v-.8h0a9.833,9.833,0,0,0-3.19,0h0c.016.26,0,.537,0,.8h0v.846a.241.241,0,0,1-.016.114,8.057,8.057,0,0,0-2.945,1.2.449.449,0,0,1-.146-.114c-.374-.391-.749-.749-1.123-1.139A10.377,10.377,0,0,0,4.371,7.75c.358.342.716.716,1.074,1.058a1.631,1.631,0,0,1,.179.2A8.136,8.136,0,0,0,4.4,11.948a.5.5,0,0,1-.163.016c-.521-.016-1.058,0-1.579,0H2.63a10.236,10.236,0,0,0,0,3.255H4.388A7.954,7.954,0,0,0,5.641,18.2c-.016.033-.049.049-.081.081-.358.342-.716.7-1.058,1.058l-.114.114a10.161,10.161,0,0,0,2.295,2.278l.033-.033c.374-.391.765-.765,1.139-1.155a.286.286,0,0,1,.081-.065A8.213,8.213,0,0,0,10.9,21.7a.361.361,0,0,1,.016.146c-.016.537,0,1.058,0,1.595v.033a9.833,9.833,0,0,0,3.19,0v-.033c0-.537,0-1.058-.016-1.595A.451.451,0,0,1,14.1,21.7a8.213,8.213,0,0,0,2.962-1.221c.033.016.049.049.081.065.374.391.765.765,1.139,1.155l.033.033a10.161,10.161,0,0,0,2.295-2.278l-.114-.114c-.358-.358-.7-.716-1.058-1.058-.033-.033-.049-.065-.081-.081a8.474,8.474,0,0,0,1.253-2.978H22.37a10.8,10.8,0,0,0,.13-1.627A8.917,8.917,0,0,0,22.386,11.965Z" transform="translate(42.5 281.695)" fill="white"/>
      <path id="Path_88925" data-name="Path 88925" d="M13.357,4.679h-.383V3.913a1.913,1.913,0,0,0-3.826,0v.765H8.765A.765.765,0,0,0,8,5.444V9.27a.765.765,0,0,0,.765.765h4.592a.765.765,0,0,0,.765-.765V5.444A.765.765,0,0,0,13.357,4.679Zm-2.3,3.444a.765.765,0,1,1,.765-.765A.765.765,0,0,1,11.061,8.122Zm1.186-3.444H9.875V3.913a1.186,1.186,0,0,1,2.372,0Z" transform="translate(43.94 289.277)" fill="#586268"/>
    </g>
  </g>
</svg>
