<svg xmlns="http://www.w3.org/2000/svg" width="22.5" height="20" viewBox="0 0 22.5 20">
  <g id="Group_69447" data-name="Group 69447" transform="translate(-42.75 -286)">
    <path id="Path_88746" data-name="Path 88746" d="M24.45,8.75a1.247,1.247,0,0,0-1.225-1H5.275a1.247,1.247,0,0,0-1.225,1L3,14v1.25A1.254,1.254,0,0,0,4.25,16.5v6.25A1.254,1.254,0,0,0,5.5,24h10a1.254,1.254,0,0,0,1.25-1.25V16.5h5v6.25a1.25,1.25,0,0,0,2.5,0V16.5a1.254,1.254,0,0,0,1.25-1.25V14ZM14.25,21.5H6.75v-5h7.5ZM5.5,6.5H23A1.25,1.25,0,0,0,23,4H5.5a1.25,1.25,0,0,0,0,2.5Z" transform="translate(39.75 282)" fill="white"/>
  </g>
</svg>
