<svg xmlns="http://www.w3.org/2000/svg" width="18" height="19.714" viewBox="0 0 18 19.714">
  <g id="invoice" transform="translate(-3 -1)">
    <path id="Path_88741" data-name="Path 88741" d="M4.714,1A1.714,1.714,0,0,0,3,2.714v18H17.571v-18A1.714,1.714,0,0,1,19.286,1Zm6,6.857H9.857A1.286,1.286,0,0,1,8.571,6.571V6.143A1.286,1.286,0,0,1,9.857,4.857V4.429a.429.429,0,0,1,.857,0v.429c1.286,0,1.68,1.714.857,1.714a.429.429,0,0,1-.429-.429.429.429,0,0,0-.429-.429H9.857a.429.429,0,0,0-.429.429v.429A.429.429,0,0,0,9.857,7h.857A1.286,1.286,0,0,1,12,8.286v.429A1.286,1.286,0,0,1,10.714,10v.429a.429.429,0,0,1-.857,0V10C8.571,10,8.177,8.286,9,8.286a.429.429,0,0,1,.429.429.429.429,0,0,0,.429.429h.857a.429.429,0,0,0,.429-.429V8.286A.429.429,0,0,0,10.714,7.857ZM15,18.571H5.571a.429.429,0,1,1,0-.857H15a.429.429,0,1,1,0,.857Zm0-2.143H5.571a.429.429,0,1,1,0-.857H15a.429.429,0,1,1,0,.857Zm0-2.143H5.571a.429.429,0,1,1,0-.857H15a.429.429,0,1,1,0,.857Z" transform="translate(0 0)" fill="white"/>
    <path id="Path_88742" data-name="Path 88742" d="M40.286,3A1.286,1.286,0,0,0,39,4.286V5.571h2.571V4.286A1.286,1.286,0,0,0,40.286,3Z" transform="translate(-20.571 -1.143)" fill="white"/>
  </g>
</svg>
